<?xml version="1.0" standalone="no"?>
<!DOCTYPE svg PUBLIC "-//W3C//DTD SVG 20010904//EN"
 "http://www.w3.org/TR/2001/REC-SVG-20010904/DTD/svg10.dtd">
<svg version="1.0" xmlns="http://www.w3.org/2000/svg"
 width="679.000000pt" height="679.000000pt" viewBox="0 0 679.000000 679.000000"
 preserveAspectRatio="xMidYMid meet">
<metadata>
Created by potrace 1.11, written by Peter Selinger 2001-2013
</metadata>
<g transform="translate(0.000000,679.000000) scale(0.100000,-0.100000)"
fill="#000000" stroke="none">
<path d="M3650 6722 c-222 -112 -360 -208 -496 -347 -132 -134 -185 -228 -226
-398 l-22 -95 -76 -16 c-41 -9 -84 -18 -95 -20 -115 -22 -383 -109 -505 -163
-110 -49 -256 -123 -330 -166 -700 -409 -1207 -1092 -1394 -1877 -26 -109 -31
-131 -42 -209 -4 -25 -8 -55 -10 -66 -2 -11 -7 -54 -10 -95 -3 -41 -9 -93 -13
-115 -3 -22 -6 -107 -5 -190 1 -227 16 -365 64 -615 61 -320 226 -712 427
-1014 243 -366 576 -687 938 -903 120 -72 131 -78 245 -134 284 -138 563 -222
911 -273 172 -25 664 -26 742 -1 7 2 35 6 62 9 107 12 315 60 464 107 448 143
845 386 1186 724 128 127 267 288 330 383 233 347 357 613 454 972 11 41 22
86 25 100 2 14 11 61 20 105 33 172 47 331 48 530 1 122 -8 298 -17 347 -3 12
-7 42 -10 67 -6 50 -6 51 -35 198 -91 446 -296 881 -588 1242 -366 454 -835
780 -1381 960 -66 22 -135 43 -154 46 l-35 7 1 66 c0 133 -23 256 -79 410 -41
114 -126 289 -188 387 -75 119 -52 114 -206 37z"/>
</g>
</svg>
